<?xml version="1.0" encoding="UTF-8"?>
<svg width="18px" height="18px" viewBox="0 0 18 18" version="1.1" xmlns="http://www.w3.org/2000/svg" xmlns:xlink="http://www.w3.org/1999/xlink">
    <!-- Generator: Sketch 42 (36781) - http://www.bohemiancoding.com/sketch -->
    <title>document copy</title>
    <desc>Created with Sketch.</desc>
    <defs></defs>
    <g id="Reference:-Icons" stroke="none" stroke-width="1" fill="none" fill-rule="evenodd">
        <g id="Icons" transform="translate(-211.000000, -136.000000)" fill="#000000">
            <g id="Format" transform="translate(68.000000, 61.000000)">
                <g id="document-copy" transform="translate(143.000000, 75.000000)">
                    <path d="M2,9.99999997e-06 L16,9.99999997e-06 C17.1046,9.99999997e-06 18,0.89544 18,2.00001 L18,16 C18,17.1046 17.1046,18 16,18 L2,18 C0.89543,18 0,17.1046 0,16 L0,2.00001 C0,0.89544 0.89543,9.99999997e-06 2,9.99999997e-06 L2,9.99999997e-06 Z M4,4.00001 L4,6.00001 L14,6.00001 L14,4.00001 L4,4.00001 L4,4.00001 Z M4,8 L4,10 L14,10 L14,8 L4,8 L4,8 Z M4,12 L4,14 L11,14 L11,12 L4,12 L4,12 Z" id="Shape"></path>
                </g>
            </g>
        </g>
    </g>
</svg>