<?xml version="1.0" encoding="UTF-8"?>
<svg width="18px" height="18px" viewBox="0 0 18 18" version="1.1" xmlns="http://www.w3.org/2000/svg" xmlns:xlink="http://www.w3.org/1999/xlink">
    <!-- Generator: Sketch 42 (36781) - http://www.bohemiancoding.com/sketch -->
    <title>volume-high copy</title>
    <desc>Created with Sketch.</desc>
    <defs></defs>
    <g id="Page-1" stroke="none" stroke-width="1" fill="none" fill-rule="evenodd">
        <g id="Artboard" transform="translate(-233.000000, -592.000000)" fill="#6E6E6E">
            <g id="volume-high-copy" transform="translate(232.000000, 592.000000)">
                <path d="M11.9994,0.22858 L11.9994,2.29156 C14.8904,3.15253 16.9994,5.82855 16.9994,8.9976 C16.9994,12.1675 14.8904,14.8436 11.9994,15.7045 L11.9994,17.7675 C16.0064,16.8566 18.9994,13.2805 18.9994,8.9976 C18.9994,4.71558 16.0064,1.13855 11.9994,0.22858 L11.9994,0.22858 Z M14.4994,8.9976 C14.4994,7.2325 13.4794,5.70752 11.9994,4.97052 L11.9994,13.0256 C13.4794,12.2875 14.4994,10.7635 14.4994,8.9976 L14.4994,8.9976 Z M0.9994,5.99756 L0.9994,11.9976 L4.9994,11.9976 L9.9994,16.9976 L9.9994,0.99756 L4.9994,5.99756 L0.9994,5.99756 L0.9994,5.99756 Z" id="Shape"></path>
            </g>
        </g>
    </g>
</svg>