<?xml version="1.0" encoding="UTF-8"?>
<svg width="44px" height="34px" viewBox="0 0 44 34" version="1.1" xmlns="http://www.w3.org/2000/svg" xmlns:xlink="http://www.w3.org/1999/xlink">
    <!-- Generator: Sketch 42 (36781) - http://www.bohemiancoding.com/sketch -->
    <title>book-open-variant copy</title>
    <desc>Created with Sketch.</desc>
    <defs></defs>
    <g id="Blank-Landing-Pages" stroke="none" stroke-width="1" fill="none" fill-rule="evenodd">
        <g id="Catalog-Landing-Page" transform="translate(-594.000000, -227.000000)" fill="#126DC1">
            <g id="book-open-variant-copy" transform="translate(594.000000, 227.000000)">
                <path d="M40,1 C37.78,0.3 35.34,0 33,0 C29.1,0 24.9,0.8 22,3 C19.1,0.8 14.9,0 11,0 C7.1,0 2.9,0.8 0,3 L0,32.3 C0,32.8 0.5,33.3 1,33.3 C1.2,33.3 1.3,33.2 1.5,33.2 C4.2,31.9 8.1,31 11,31 C14.9,31 19.1,31.8 22,34 C24.7,32.3 29.6,31 33,31 C36.3,31 39.7,31.6 42.5,33.1 C42.7,33.2 42.8,33.2 43,33.2 C43.5,33.2 44,32.7 44,32.2 L44,3 C42.8,2.1 41.5,1.5 40,1 L40,1 Z M40,28 C37.8,27.3 35.4,27 33,27 C29.6,27 24.7,28.3 22,30 L22,7 C24.7,5.3 29.6,4 33,4 C35.4,4 37.8,4.3 40,5 L40,28 L40,28 Z" id="Shape"></path>
            </g>
        </g>
    </g>
</svg>