<?xml version="1.0" encoding="UTF-8"?>
<svg width="20px" height="20px" viewBox="0 0 20 20" version="1.1" xmlns="http://www.w3.org/2000/svg" xmlns:xlink="http://www.w3.org/1999/xlink">
    <!-- Generator: Sketch 42 (36781) - http://www.bohemiancoding.com/sketch -->
    <title>checkbox-blank-circle copy</title>
    <desc>Created with Sketch.</desc>
    <defs></defs>
    <g id="Page-1" stroke="none" stroke-width="1" fill="none" fill-rule="evenodd">
        <g id="Artboard" transform="translate(-230.000000, -652.000000)">
            <g id="checkbox-blank-circle-copy" transform="translate(230.000000, 652.000000)">
                <path d="M10.00001,0 C4.477,0 0,4.477 0,10.00003 C0,15.52303 4.477,20.00003 10.00001,20.00003 C15.52201,20.00003 20.00001,15.52303 20.00001,10.00003 C20.00001,4.477 15.52201,0 10.00001,0 L10.00001,0 Z" id="Shape" fill="#6E6E6E"></path>
                <path d="M10.000006,8 C8.89539737,8 7.999992,8.89540537 7.999992,10.000018 C7.999992,11.1046246 8.89539737,12.00003 10.000006,12.00003 C11.1044126,12.00003 12.000018,11.1046246 12.000018,10.000018 C12.000018,8.89540537 11.1044126,8 10.000006,8 L10.000006,8 Z" id="Shape" fill="#FFFFFF"></path>
            </g>
        </g>
    </g>
</svg>