<?xml version="1.0" encoding="UTF-8"?>
<svg width="16px" height="18px" viewBox="0 0 16 18" version="1.1" xmlns="http://www.w3.org/2000/svg" xmlns:xlink="http://www.w3.org/1999/xlink">
    <!-- Generator: Sketch 42 (36781) - http://www.bohemiancoding.com/sketch -->
    <title>database copy</title>
    <desc>Created with Sketch.</desc>
    <defs></defs>
    <g id="Reference:-Icons" stroke="none" stroke-width="1" fill="none" fill-rule="evenodd">
        <g id="Icons" transform="translate(-557.000000, -635.000000)" fill="#000000">
            <g id="Access" transform="translate(519.000000, 562.000000)">
                <g id="database-copy" transform="translate(38.000000, 73.000000)">
                    <path d="M8,0 C3.58172,0 0,1.7909 0,4 C0,6.2091 3.58172,8 8,8 C12.4183,8 16,6.2091 16,4 C16,1.7909 12.4183,0 8,0 L8,0 Z M0,6 L0,9 C0,11.2091 3.58172,13 8,13 C12.4183,13 16,11.2091 16,9 L16,6 C16,8.2091 12.4183,10 8,10 C3.58172,10 0,8.2091 0,6 L0,6 Z M0,11 L0,14 C0,16.2091 3.58172,18 8,18 C12.4183,18 16,16.2091 16,14 L16,11 C16,13.2091 12.4183,15 8,15 C3.58172,15 0,13.2091 0,11 L0,11 Z" id="Shape"></path>
                </g>
            </g>
        </g>
    </g>
</svg>