<?xml version="1.0" encoding="UTF-8"?>
<svg width="20px" height="20px" viewBox="0 0 20 20" version="1.1" xmlns="http://www.w3.org/2000/svg" xmlns:xlink="http://www.w3.org/1999/xlink">
    <!-- Generator: Sketch 42 (36781) - http://www.bohemiancoding.com/sketch -->
    <title>earth copy</title>
    <desc>Created with Sketch.</desc>
    <defs></defs>
    <g id="Reference:-Icons" stroke="none" stroke-width="1" fill="none" fill-rule="evenodd">
        <g id="Icons" transform="translate(-589.000000, -636.000000)" fill="#000000">
            <g id="Access" transform="translate(519.000000, 562.000000)">
                <g id="earth-copy" transform="translate(70.000000, 73.000000)">
                    <path d="M15.8956,16.3916 C15.6376,15.5856 14.8906,14.9986 13.9996,14.9986 L12.9996,14.9986 L12.9996,11.9986 C12.9996,11.4456 12.5516,10.9986 11.9996,10.9986 L5.99959,10.9986 L5.99959,8.99857 L7.99959,8.99857 C8.5516,8.99857 8.9996,8.55057 8.9996,7.99857 L8.9996,5.99857 L10.9996,5.99857 C12.1036,5.99857 12.9996,5.10257 12.9996,3.99857 L12.9996,3.58557 C15.9296,4.77257 17.9996,7.64157 17.9996,10.9986 C17.9996,13.0796 17.1986,14.9686 15.8956,16.3916 L15.8956,16.3916 Z M8.9996,18.9286 C5.0546,18.4356 1.99959,15.0766 1.99959,10.9986 C1.99959,10.3816 2.07559,9.7836 2.2076,9.2066 L6.99959,13.9986 L6.99959,14.9986 C6.99959,16.1026 7.89459,16.9986 8.9996,16.9986 L8.9996,18.9286 Z M9.9996,0.99857 C4.47659,0.99857 -0.00041,5.47557 -0.00041,10.9986 C-0.00041,16.5206 4.47659,20.9986 9.9996,20.9986 C15.5226,20.9986 19.9996,16.5206 19.9996,10.9986 C19.9996,5.47557 15.5226,0.99857 9.9996,0.99857 L9.9996,0.99857 Z" id="Shape"></path>
                </g>
            </g>
        </g>
    </g>
</svg>