<?xml version="1.0" encoding="UTF-8"?>
<svg width="32px" height="40px" viewBox="0 0 32 40" version="1.1" xmlns="http://www.w3.org/2000/svg" xmlns:xlink="http://www.w3.org/1999/xlink">
    <!-- Generator: Sketch 42 (36781) - http://www.bohemiancoding.com/sketch -->
    <title>file-document copy</title>
    <desc>Created with Sketch.</desc>
    <defs></defs>
    <g id="Blank-Landing-Pages" stroke="none" stroke-width="1" fill="none" fill-rule="evenodd">
        <g id="Catalog-Landing-Page" transform="translate(-670.000000, -224.000000)" fill="#126DC1">
            <g id="file-document-copy" transform="translate(670.000000, 224.000000)">
                <path d="M18.00002,14 L29.00002,14 L18.00002,3 L18.00002,14 L18.00002,14 Z M4,0 L20.00002,0 L32.00002,12 L32.00002,36.00006 C32.00002,38.20806 30.20802,40.00006 28.00002,40.00006 L3.97998,40.00006 C1.77198,40.00006 0,38.20806 0,36.00006 L0.02002,4 C0.02002,1.792 1.78996,0 4,0 L4,0 Z M22.00122,32.00386 L22.00122,28.00386 L3.98124,28.00386 L3.98124,32.00386 L22.00122,32.00386 L22.00122,32.00386 Z M28.00122,24.00386 L28.00122,20.00386 L3.98124,20.00386 L3.98124,24.00386 L28.00122,24.00386 L28.00122,24.00386 Z" id="Shape"></path>
            </g>
        </g>
    </g>
</svg>