<?xml version="1.0" encoding="UTF-8"?>
<svg width="22px" height="12px" viewBox="0 0 22 12" version="1.1" xmlns="http://www.w3.org/2000/svg" xmlns:xlink="http://www.w3.org/1999/xlink">
    <!-- Generator: Sketch 42 (36781) - http://www.bohemiancoding.com/sketch -->
    <title>gamepad-variant copy</title>
    <desc>Created with Sketch.</desc>
    <defs></defs>
    <g id="Page-1" stroke="none" stroke-width="1" fill="none" fill-rule="evenodd">
        <g id="Artboard" transform="translate(-229.000000, -773.000000)" fill="#6E6E6E">
            <g id="gamepad-variant-copy" transform="translate(229.000000, 773.000000)">
                <path d="M6,0 L16,0 C19.3137,0 22,2.68629 22,6 C22,9.3137 19.3137,12 16,12 C14.223,12 12.6264,11.2275 11.5278,10 L10.4722,10 C9.3736,11.2275 7.777,12 6,12 C2.68629,12 0,9.3137 0,6 C0,2.68629 2.68629,0 6,0 L6,0 Z M5,3 L5,5 L3,5 L3,7 L5,7 L5,9 L7,9 L7,7 L9,7 L9,5 L7,5 L7,3 L5,3 L5,3 Z M14.5,6 C13.6716,6 13,6.6716 13,7.5 C13,8.3284 13.6716,9 14.5,9 C15.3284,9 16,8.3284 16,7.5 C16,6.6716 15.3284,6 14.5,6 L14.5,6 Z M17.5,3 C16.6716,3 16,3.67158 16,4.5 C16,5.3284 16.6716,6 17.5,6 C18.3284,6 19,5.3284 19,4.5 C19,3.67158 18.3284,3 17.5,3 L17.5,3 Z" id="Shape"></path>
            </g>
        </g>
    </g>
</svg>