<?xml version="1.0" encoding="UTF-8"?>
<svg width="40px" height="40px" viewBox="0 0 40 40" version="1.1" xmlns="http://www.w3.org/2000/svg" xmlns:xlink="http://www.w3.org/1999/xlink">
    <!-- Generator: Sketch 42 (36781) - http://www.bohemiancoding.com/sketch -->
    <title>picture copy</title>
    <desc>Created with Sketch.</desc>
    <defs></defs>
    <g id="Blank-Landing-Pages" stroke="none" stroke-width="1" fill="none" fill-rule="evenodd">
        <g id="Catalog-Landing-Page" transform="translate(-806.000000, -224.000000)" fill="#126DC1">
            <g id="picture-copy" transform="translate(806.000000, 224.000000)">
                <path d="M4,0 L36,0 C38.2092,0 40,1.79084 40,3.99998 L40,35.99998 C40,38.20918 38.2092,39.99998 36,39.99998 L4,39.99998 C1.79086,39.99998 0,38.20918 0,35.99998 L0,3.99998 C0,1.79084 1.79086,0 4,0 L4,0 Z M10,3.99998 C7.23858,3.99998 5,6.23856 5,8.99998 C5,11.7614 7.23858,13.99998 10,13.99998 C12.76142,13.99998 15,11.7614 15,8.99998 C15,6.23856 12.76142,3.99998 10,3.99998 L10,3.99998 Z M4,31.99998 L4,35.99998 L36,35.99998 L36,23.99998 L30,17.99998 L18,29.99998 L12,23.99998 L4,31.99998 L4,31.99998 Z" id="Shape"></path>
            </g>
        </g>
    </g>
</svg>