<?xml version="1.0" encoding="UTF-8"?>
<svg width="18px" height="20px" viewBox="0 0 18 20" version="1.1" xmlns="http://www.w3.org/2000/svg" xmlns:xlink="http://www.w3.org/1999/xlink">
    <!-- Generator: Sketch 42 (36781) - http://www.bohemiancoding.com/sketch -->
    <title>book-multiple-variant copy</title>
    <desc>Created with Sketch.</desc>
    <defs></defs>
    <g id="Reference:-Icons" stroke="none" stroke-width="1" fill="none" fill-rule="evenodd">
        <g id="Icons" transform="translate(-135.000000, -61.000000)" fill="#000000">
            <g id="Format" transform="translate(68.000000, 61.000000)">
                <g id="book-multiple-variant-copy" transform="translate(67.000000, 0.000000)">
                    <path d="M15.9999,16.0007 L6.00002,15.9997 C4.8965,15.9997 4.00002,15.1037 4.00002,13.9997 L3.99999,2.00016 C3.99999,0.89616 4.89647,0.00016 5.99998,0.00016 L15.9999,0.00114 C17.1048,0.00114 17.9998,0.89713 17.9998,2.00114 L17.9999,14.0007 C17.9999,15.1047 17.1049,16.0007 15.9999,16.0007 L15.9999,16.0007 Z M6.99995,7.00066 L8.9999,5.50131 L10.9999,7.00091 L11,2 L7,2 L6.99995,7.00066 L6.99995,7.00066 Z M14,18 L14,20 L2,20 C0.89543,20 0,19.1046 0,18 L0,4.00001 L2,4 L2,18 L14,18 L14,18 Z" id="Shape"></path>
                </g>
            </g>
        </g>
    </g>
</svg>
