<?xml version="1.0" encoding="UTF-8"?>
<svg width="20px" height="20px" viewBox="0 0 20 20" version="1.1" xmlns="http://www.w3.org/2000/svg" xmlns:xlink="http://www.w3.org/1999/xlink">
    <!-- Generator: Sketch 42 (36781) - http://www.bohemiancoding.com/sketch -->
    <title>script copy</title>
    <desc>Created with Sketch.</desc>
    <defs></defs>
    <g id="Page-1" stroke="none" stroke-width="1" fill="none" fill-rule="evenodd">
        <g id="Artboard" transform="translate(-232.000000, -1067.000000)" fill="#6E6E6E">
            <g id="script-copy" transform="translate(232.000000, 1067.000000)">
                <path d="M12,18 C13.1046,18 14,17.1046 14,16 L14,3 L7,2.99999 C6.44771,3 6,3.44771 6,3.99999 L6,14 L3,14 L3,3.00001 C3,1.34316 4.34319,9.99999997e-06 6.00004,9.99999997e-06 L17,9.99999997e-06 C18.6568,9.99999997e-06 20,1.34316 20,3.00001 L20,4 L16,4 L16,16 L16,17 C16,18.6569 14.6568,20 13,20 L3,20 C1.34315,20 0,18.6569 0,17 L0,16 L10,16 C10,17.1046 10.8954,18 12,18 L12,18 Z" id="Shape"></path>
            </g>
        </g>
    </g>
</svg>