<?xml version="1.0" encoding="UTF-8"?>
<svg width="18px" height="18px" viewBox="0 0 18 18" version="1.1" xmlns="http://www.w3.org/2000/svg" xmlns:xlink="http://www.w3.org/1999/xlink">
    <!-- Generator: Sketch 42 (36781) - http://www.bohemiancoding.com/sketch -->
    <title>map copy</title>
    <desc>Created with Sketch.</desc>
    <defs></defs>
    <g id="Page-1" stroke="none" stroke-width="1" fill="none" fill-rule="evenodd">
        <g id="Artboard" transform="translate(-234.000000, -1183.000000)" fill="#6E6E6E">
            <g id="map-copy" transform="translate(233.000000, 1182.000000)">
                <path d="M12.9994,16.9981 L6.99939,14.8911 L6.99939,2.99807 L12.9994,5.10506 L12.9994,16.9981 Z M18.4994,0.99807 C18.4444,0.99807 18.3924,1.00406 18.3434,1.02306 L12.9994,3.09807 L6.99939,0.99807 L1.3624,2.89606 C1.1524,2.96607 0.99939,3.14707 0.99939,3.37607 L0.99939,18.4981 C0.99939,18.7741 1.22339,18.9981 1.49939,18.9981 C1.55438,18.9981 1.60638,18.9921 1.6564,18.9731 L6.99939,16.8981 L12.9994,18.9981 L18.6374,17.1001 C18.8474,17.0271 18.9994,16.8491 18.9994,16.6191 L18.9994,1.49807 C18.9994,1.22108 18.7764,0.99807 18.4994,0.99807 L18.4994,0.99807 Z" id="Shape"></path>
            </g>
        </g>
    </g>
</svg>