<?xml version="1.0" encoding="UTF-8"?>
<svg width="16px" height="19px" viewBox="0 0 16 19" version="1.1" xmlns="http://www.w3.org/2000/svg" xmlns:xlink="http://www.w3.org/1999/xlink">
    <!-- Generator: Sketch 42 (36781) - http://www.bohemiancoding.com/sketch -->
    <title>filmstrip copy</title>
    <desc>Created with Sketch.</desc>
    <defs></defs>
    <g id="Page-1" stroke="none" stroke-width="1" fill="none" fill-rule="evenodd">
        <g id="Artboard" transform="translate(-236.000000, -1142.000000)" fill="#6E6E6E">
            <g id="filmstrip-copy" transform="translate(235.000000, 1142.000000)">
                <path d="M14.9994,6.99805 L12.9994,6.99805 L12.9994,4.99805 L14.9994,4.99805 L14.9994,6.99805 Z M14.9994,10.998 L12.9994,10.998 L12.9994,8.998 L14.9994,8.998 L14.9994,10.998 Z M14.9994,14.998 L12.9994,14.998 L12.9994,12.998 L14.9994,12.998 L14.9994,14.998 Z M4.99939,6.99805 L2.99939,6.99805 L2.99939,4.99805 L4.99939,4.99805 L4.99939,6.99805 Z M4.99939,10.998 L2.99939,10.998 L2.99939,8.998 L4.99939,8.998 L4.99939,10.998 Z M4.99939,14.998 L2.99939,14.998 L2.99939,12.998 L4.99939,12.998 L4.99939,14.998 Z M14.9994,0.99805 L14.9994,2.99805 L12.9994,2.99805 L12.9994,0.99805 L4.99939,0.99805 L4.99939,2.99805 L2.99939,2.99805 L2.99939,0.99805 L0.99939,0.99805 L0.99939,18.998 L2.99939,18.998 L2.99939,16.998 L4.99939,16.998 L4.99939,18.998 L12.9994,18.998 L12.9994,16.998 L14.9994,16.998 L14.9994,18.998 L16.9994,18.998 L16.9994,0.99805 L14.9994,0.99805 L14.9994,0.99805 Z" id="Shape"></path>
            </g>
        </g>
    </g>
</svg>