<?xml version="1.0" encoding="UTF-8"?>
<svg width="16px" height="20px" viewBox="0 0 16 20" version="1.1" xmlns="http://www.w3.org/2000/svg" xmlns:xlink="http://www.w3.org/1999/xlink">
    <!-- Generator: Sketch 42 (36781) - http://www.bohemiancoding.com/sketch -->
    <title>music-note copy</title>
    <desc>Created with Sketch.</desc>
    <defs></defs>
    <g id="Page-1" stroke="none" stroke-width="1" fill="none" fill-rule="evenodd">
        <g id="Artboard" transform="translate(-236.000000, -1104.000000)" fill="#6E6E6E">
            <g id="music-note-copy" transform="translate(236.000000, 1104.000000)">
                <path d="M8,0 C8.4348,0 8.8373,0.13877 9.1654,0.37444 C11.7769,2.24963 14.3885,4.12481 15.1109,6.31241 C15.8333,8.5 15,11 13.5,13.5 C16,7 9,5.5 9,5.5 L9,16 C9,18.2091 6.9853,20 4.5,20 C2.01472,20 0,18.2091 0,16 C0,13.7909 2.01472,12 4.5,12 C5.02595,12 5.53083,12.0802 6,12.2276 L6,2 C6,0.89543 6.8954,0 8,0 L8,0 Z" id="Shape"></path>
            </g>
        </g>
    </g>
</svg>