<?xml version="1.0" encoding="UTF-8"?>
<svg width="20px" height="18px" viewBox="0 0 20 18" version="1.1" xmlns="http://www.w3.org/2000/svg" xmlns:xlink="http://www.w3.org/1999/xlink">
    <!-- Generator: Sketch 42 (36781) - http://www.bohemiancoding.com/sketch -->
    <title>newspaper copy</title>
    <desc>Created with Sketch.</desc>
    <defs></defs>
    <g id="Page-1" stroke="none" stroke-width="1" fill="none" fill-rule="evenodd">
        <g id="Artboard-2" transform="translate(-131.000000, -627.000000)" fill="#6E6E6E">
            <g id="newspaper-copy" transform="translate(131.000000, 627.000000)">
                <path d="M18,8 L2,8 L2,4.99999 L18,4.99999 L18,8 Z M18,10 L11,10 L11,9 L18,9 L18,10 Z M18,12 L11,12 L11,11 L18,11 L18,12 Z M18,14 L11,14 L11,13 L18,13 L18,14 Z M18,16 L11,16 L11,15 L18,15 L18,16 Z M10,16 L2,16 L2,9 L10,9 L10,16 Z M18.333,1.66704 L16.667,-9.99999997e-06 L15,1.66704 L13.333,-9.99999997e-06 L11.667,1.66704 L10,-9.99999997e-06 L8.333,1.66704 L6.66701,-9.99999997e-06 L5,1.66704 L3.33299,-9.99999997e-06 L1.66701,1.66704 L0,-9.99999997e-06 L0,16 C0,17.104 0.89501,18 2,18 L18,18 C19.104,18 19.99,17.104 19.99,16 L20,-9.99999997e-06 L18.333,1.66704 L18.333,1.66704 Z" id="Shape"></path>
            </g>
        </g>
    </g>
</svg>