<?xml version="1.0" encoding="UTF-8"?>
<svg width="22px" height="15px" viewBox="0 0 22 15" version="1.1" xmlns="http://www.w3.org/2000/svg" xmlns:xlink="http://www.w3.org/1999/xlink">
    <!-- Generator: Sketch 42 (36781) - http://www.bohemiancoding.com/sketch -->
    <title>Shape</title>
    <desc>Created with Sketch.</desc>
    <defs></defs>
    <g id="Page-1" stroke="none" stroke-width="1" fill="none" fill-rule="evenodd">
        <g id="Artboard" transform="translate(-230.000000, -1031.000000)" fill="#6E6E6E">
            <path d="M240.99999,1035.5 C239.34299,1035.5 238,1036.84297 238,1038.49997 C238,1040.15697 239.34299,1041.49997 240.99999,1041.49997 C242.65699,1041.49997 243.99999,1040.15697 243.99999,1038.49997 C243.99999,1036.84297 242.65699,1035.5 240.99999,1035.5 L240.99999,1035.5 Z M240.99999,1043.49997 C238.239,1043.49997 236,1041.26097 236,1038.49997 C236,1035.73901 238.239,1033.5 240.99999,1033.5 C243.76099,1033.5 245.99999,1035.73901 245.99999,1038.49997 C245.99999,1041.26097 243.76099,1043.49997 240.99999,1043.49997 L240.99999,1043.49997 Z M240.99999,1031 C235.998,1031 231.728,1034.11102 230,1038.49997 C231.728,1042.88897 235.998,1045.99997 240.99999,1045.99997 C246.00299,1045.99997 250.27199,1042.88897 251.99999,1038.49997 C250.27199,1034.11102 246.00299,1031 240.99999,1031 L240.99999,1031 Z" id="Shape"></path>
        </g>
    </g>
</svg>