<?xml version="1.0" encoding="UTF-8"?>
<svg width="20px" height="20px" viewBox="0 0 20 20" version="1.1" xmlns="http://www.w3.org/2000/svg" xmlns:xlink="http://www.w3.org/1999/xlink">
    <!-- Generator: Sketch 42 (36781) - http://www.bohemiancoding.com/sketch -->
    <title>timetable copy 2</title>
    <desc>Created with Sketch.</desc>
    <defs></defs>
    <g id="Reference:-Icons" stroke="none" stroke-width="1" fill="none" fill-rule="evenodd">
        <g id="Icons" transform="translate(-658.000000, -480.000000)" fill="#000000">
            <g id="Date-Time" transform="translate(519.000000, 289.000000)">
                <g id="timetable-copy-2" transform="translate(139.000000, 191.000000)">
                    <path d="M12,10 L13.5,10 L13.5,12.823 L15.9382,14.2307 L15.1882,15.5297 L12,13.689 L12,10 L12,10 Z M2,9.99999997e-06 L16,2e-05 C17.1046,2e-05 18,0.89545 18,2.00002 L18,8.101 C19.2372,9.3636 20,11.0927 20,13 C20,16.866 16.866,20 13,20 C11.0927,20 9.3636,19.2372 8.101,18 L2,18 C0.89543,18 0,17.1046 0,16 L0,2.00001 C0,0.89544 0.89543,9.99999997e-06 2,9.99999997e-06 L2,9.99999997e-06 Z M2,13 L2,16 L6.67363,16 C6.24169,15.0907 6,14.0736 6,13 L2,13 L2,13 Z M2,6.00001 L8,6 L8,3 L2,3.00001 L2,6.00001 L2,6.00001 Z M16,6.00001 L16,3.00001 L10,3 L10,6 L16,6.00001 L16,6.00001 Z M2,11 L6.28987,11 C6.63282,9.8477 7.2645,8.8197 8.101,8 L2,8 L2,11 L2,11 Z M13,8.1539 C10.3235,8.1539 8.1538,10.3236 8.1538,13 C8.1538,15.6765 10.3235,17.8462 13,17.8462 C15.6764,17.8462 17.8461,15.6765 17.8461,13 C17.8461,10.3236 15.6764,8.1539 13,8.1539 L13,8.1539 Z" id="Shape"></path>
                </g>
            </g>
        </g>
    </g>
</svg>