<?xml version="1.0" encoding="UTF-8"?>
<svg width="40px" height="40px" viewBox="0 0 40 40" version="1.1" xmlns="http://www.w3.org/2000/svg" xmlns:xlink="http://www.w3.org/1999/xlink">
    <!-- Generator: Sketch 42 (36781) - http://www.bohemiancoding.com/sketch -->
    <title>Shape</title>
    <desc>Created with Sketch.</desc>
    <defs></defs>
    <g id="Blank-Landing-Pages" stroke="none" stroke-width="1" fill="none" fill-rule="evenodd">
        <g id="Magic-Search-Landing-Page" transform="translate(-700.000000, -224.000000)" fill-rule="nonzero" fill="#126DC1">
            <path d="M712.38424,230.856327 L707.622902,233.522676 L710.289251,228.761338 L707.622902,224 L712.38424,226.666349 L717.145578,224 L714.479229,228.761338 L717.145578,233.522676 L712.38424,230.856327 L712.38424,230.856327 Z M735.238662,249.520771 L740,246.854422 L737.333651,251.61576 L740,256.377098 L735.238662,253.710749 L730.477324,256.377098 L733.143673,251.61576 L730.477324,246.854422 L735.238662,249.520771 L735.238662,249.520771 Z M740,224 L737.333651,228.761338 L740,233.522676 L735.238662,230.856327 L730.477324,233.522676 L733.143673,228.761338 L730.477324,224 L735.238662,226.666349 L740,224 L740,224 Z M723.506725,244.530889 L728.153791,239.883823 L724.116177,235.846209 L719.469111,240.493275 L723.506725,244.530889 L723.506725,244.530889 Z M725.468397,234.074991 L729.925009,238.531603 C730.667778,239.236281 730.667778,240.474229 729.925009,241.216998 L707.699083,263.442923 C706.956315,264.185692 705.718367,264.185692 705.013689,263.442923 L700.557077,258.986311 C699.814308,258.281633 699.814308,257.043685 700.557077,256.300917 L722.783002,234.074991 C723.525771,233.332222 724.763719,233.332222 725.468397,234.074991 Z" id="Shape" transform="translate(720.000000, 244.000000) rotate(-90.000000) translate(-720.000000, -244.000000) "></path>
        </g>
    </g>
</svg>