<?xml version="1.0" encoding="UTF-8"?>
<svg width="20px" height="20px" viewBox="0 0 20 20" version="1.1" xmlns="http://www.w3.org/2000/svg" xmlns:xlink="http://www.w3.org/1999/xlink">
    <!-- Generator: Sketch 42 (36781) - http://www.bohemiancoding.com/sketch -->
    <title>web copy</title>
    <desc>Created with Sketch.</desc>
    <defs></defs>
    <g id="Reference:-Icons" stroke="none" stroke-width="1" fill="none" fill-rule="evenodd">
        <g id="Icons" transform="translate(-696.000000, -711.000000)" fill="#000000">
            <g id="Access" transform="translate(519.000000, 562.000000)">
                <g id="web-copy" transform="translate(177.000000, 148.000000)">
                    <path d="M14.3607,12.998 C14.4427,12.3411 14.4997,11.6771 14.4997,10.998 C14.4997,10.319 14.4427,9.655 14.3607,8.99805 L17.7367,8.99805 C17.9027,9.6381 17.9997,10.306 17.9997,10.998 C17.9997,11.6901 17.9027,12.358 17.7367,12.998 L14.3607,12.998 Z M12.5927,18.559 C13.1927,17.446 13.6487,16.248 13.9717,14.998 L16.9207,14.998 C15.9617,16.652 14.4297,17.928 12.5927,18.559 L12.5927,18.559 Z M12.3387,12.998 L7.6597,12.998 C7.5647,12.343 7.49969,11.6791 7.49969,10.998 C7.49969,10.317 7.5647,9.6531 7.6597,8.99805 L12.3387,8.99805 C12.4337,9.6531 12.4997,10.317 12.4997,10.998 C12.4997,11.6791 12.4337,12.343 12.3387,12.998 L12.3387,12.998 Z M9.9977,18.962 C9.1657,17.762 8.5157,16.4291 8.0887,14.998 L11.9097,14.998 C11.4817,16.4291 10.8317,17.762 9.9977,18.962 L9.9977,18.962 Z M6.0257,6.99805 L3.07669,6.99805 C4.0347,5.34204 5.56668,4.06403 7.40469,3.43506 C6.80469,4.54803 6.34869,5.74603 6.0257,6.99805 L6.0257,6.99805 Z M3.07669,14.998 L6.0257,14.998 C6.34869,16.249 6.80469,17.4481 7.40469,18.561 C5.56668,17.9321 4.0347,16.6541 3.07669,14.998 L3.07669,14.998 Z M2.26068,12.998 C2.0957,12.358 1.99969,11.6901 1.99969,10.998 C1.99969,10.306 2.0957,9.6381 2.26068,8.99805 L5.6377,8.99805 C5.55569,9.655 5.49969,10.319 5.49969,10.998 C5.49969,11.6771 5.55569,12.3411 5.6377,12.998 L2.26068,12.998 Z M9.9977,3.03406 C10.8317,4.23407 11.4817,5.56702 11.9097,6.99805 L8.0887,6.99805 C8.5157,5.56702 9.1657,4.23407 9.9977,3.03406 L9.9977,3.03406 Z M16.9207,6.99805 L13.9717,6.99805 C13.6487,5.74805 13.1927,4.55005 12.5927,3.43707 C14.4297,4.06805 15.9617,5.34406 16.9207,6.99805 L16.9207,6.99805 Z M9.9937,0.99805 C4.46768,0.99805 -0.00031,5.47504 -0.00031,10.998 C-0.00031,16.5211 4.46768,20.998 9.9937,20.998 C15.5207,20.998 19.9997,16.5211 19.9997,10.998 C19.9997,5.47504 15.5207,0.99805 9.9937,0.99805 L9.9937,0.99805 Z" id="Shape"></path>
                </g>
            </g>
        </g>
    </g>
</svg>