<?xml version="1.0" encoding="UTF-8"?><svg id="Layer_3" xmlns="http://www.w3.org/2000/svg" viewBox="0 0 111 111"><rect x="74" y="37" width="37" height="37" style="fill:#fff9e6;"/><rect x="37" y="74" width="37" height="37" style="fill:#fff9e6;"/><rect y="37" width="37" height="37" style="fill:#fff9e6;"/><rect x="37" width="37" height="37" style="fill:#ffda50;"/><rect y="74" width="37" height="37" style="fill:#65a8bf;"/><rect x="74" y="74" width="37" height="37" style="fill:#e9f2f5;"/><rect x="37" y="37" width="37" height="37" style="fill:#e9f2f5;"/><rect width="37" height="37" style="fill:#a7cddb;"/><rect x="74" width="37" height="37" style="fill:#a7cddb;"/><path d="M18.5,74h0c10.22,0,18.5,8.28,18.5,18.5h0c0,10.22-8.28,18.5-18.5,18.5h0c-10.22,0-18.5-8.28-18.5-18.5h0c0-10.22,8.28-18.5,18.5-18.5Z" style="fill:#ffea9b;"/><path d="M111,37c0,10.22-8.28,18.5-18.5,18.5s-18.5-8.28-18.5-18.5c42.84,0,8.28,0,18.5,0s-18.5,0,18.5,0Z" style="fill:#1d7491;"/><path d="M37,37c0,10.22-8.28,18.5-18.5,18.5S0,47.22,0,37c42.84,0,8.28,0,18.5,0s-18.5,0,18.5,0Z" style="fill:#ffda50;"/><path d="M74,74c0-10.22,8.28-18.5,18.5-18.5s18.5,8.28,18.5,18.5c-42.84,0-8.28,0-18.5,0s18.5,0-18.5,0Z" style="fill:#a7cddb;"/><path d="M0,74c0-10.22,8.28-18.5,18.5-18.5s18.5,8.28,18.5,18.5c-42.84,0-8.28,0-18.5,0s18.5,0-18.5,0Z" style="fill:#1d7491;"/><path d="M37,111v-37h.5c10.22,0,18.5,8.28,18.5,18.5s-8.28,18.5-18.5,18.5h-.5Z" style="fill:#ffda50;"/><path d="M37,37V0h.5c10.22,0,18.5,8.28,18.5,18.5s-8.28,18.5-18.5,18.5h-.5Z" style="fill:#e9f2f5;"/><path d="M74,111v-37c-9.94,0-18,8.06-18,18v1c0,9.94,8.06,18,18,18Z" style="fill:#65a8bf;"/><path d="M74,37V0c-9.94,0-18,8.06-18,18v1c0,9.94,8.06,18,18,18Z" style="fill:#ffea9b;"/><path d="M92.5,74h0c10.22,0,18.5,8.28,18.5,18.5h0c0,10.22-8.28,18.5-18.5,18.5h0c-10.22,0-18.5-8.28-18.5-18.5h0c0-10.22,8.28-18.5,18.5-18.5Z" style="fill:#fff9e6;"/><path d="M55.5,37h0c10.22,0,18.5,8.28,18.5,18.5h0c0,10.22-8.28,18.5-18.5,18.5h0c-10.22,0-18.5-8.28-18.5-18.5h0c0-10.22,8.28-18.5,18.5-18.5Z" style="fill:#a7cddb;"/><path d="M92.5,0h0c10.22,0,18.5,8.28,18.5,18.5h0c0,10.22-8.28,18.5-18.5,18.5h0c-10.22,0-18.5-8.28-18.5-18.5h0c0-10.22,8.28-18.5,18.5-18.5Z" style="fill:#e9f2f5;"/><path d="M18.5,0h0c10.22,0,18.5,8.28,18.5,18.5h0c0,10.22-8.28,18.5-18.5,18.5h0C8.28,37,0,28.72,0,18.5h0C0,8.28,8.28,0,18.5,0Z" style="fill:#fff9e6;"/></svg>