<?xml version="1.0" encoding="UTF-8"?><svg id="Layer_4" xmlns="http://www.w3.org/2000/svg" viewBox="0 0 111 111"><rect x="73.97" y="37" width="36.97" height="36.97" style="fill:#e9f2f5;"/><rect x="37" y="73.97" width="36.97" height="36.97" style="fill:#e9f2f5;"/><rect x=".03" y="37" width="36.97" height="36.97" style="fill:#65a8bf;"/><rect x="37" y=".03" width="36.97" height="36.97" style="fill:#e9f2f5;"/><rect x=".03" y="73.97" width="36.97" height="36.97" style="fill:#e9f2f5;"/><rect x="73.97" y="73.97" width="36.97" height="36.97" style="fill:#ffda50;"/><rect x="37" y="37" width="36.97" height="36.97" style="fill:#e9f2f5;"/><rect x=".03" y=".03" width="36.97" height="36.97" style="fill:#fff9e6;"/><rect x="73.97" y=".03" width="36.97" height="36.97" style="fill:#a7cddb;"/><path d="M73.97.03v36.97h36.97c-20.43-.04-36.97-16.58-36.97-36.97Z" style="fill:#ffb899; fill-rule:evenodd;"/><path d="M73.97.03h-36.97v36.97C37.04,16.57,53.58.03,73.97.03Z" style="fill:#fff9e6; fill-rule:evenodd;"/><path d="M73.97,73.97v36.97h36.97c-20.43-.04-36.97-16.58-36.97-36.97Z" style="fill:#a7cddb; fill-rule:evenodd;"/><path d="M73.97,37c0,10.21-8.28,18.49-18.49,18.49s-18.49-8.28-18.49-18.49c42.81,0,8.28,0,18.49,0s-18.49,0,18.49,0Z" style="fill:#ffea9b;"/><path d="M37.03,36.97c-10.21.01-18.5-8.25-18.51-18.46C18.5,8.3,26.76.01,36.97,0c.06,42.81.01,8.28.03,18.49.01,10.21-.03-18.49.03,18.49Z" style="fill:#ffb899;"/><path d="M37.05,110.95c-10.21.01-18.5-8.25-18.51-18.46-.01-10.21,8.25-18.5,18.46-18.51.06,42.81.01,8.28.03,18.49.01,10.21-.03-18.49.03,18.49Z" style="fill:#a7cddb;"/><path d="M111,73.97c-10.21.01-18.5-8.25-18.51-18.46-.01-10.21,8.25-18.5,18.46-18.51.06,42.81.01,8.28.03,18.49.01,10.21-.03-18.49.03,18.49Z" style="fill:#a7cddb;"/><path d="M37,73.97c0-10.21,8.28-18.49,18.49-18.49s18.49,8.28,18.49,18.49c-42.81,0-8.28,0-18.49,0s18.49,0-18.49,0Z" style="fill:#a7cddb;"/><path d="M0,.05c10.21-.01,18.5,8.25,18.51,18.46.01,10.21-8.25,18.5-18.46,18.51C0-5.78.04,28.75.03,18.54.01,8.33.05,37.03,0,.05Z" style="fill:#a7cddb;"/><path d="M.03,74.03c10.21-.01,18.5,8.25,18.51,18.46.01,10.21-8.25,18.5-18.46,18.51-.06-42.81-.01-8.28-.03-18.49-.01-10.21.03,18.49-.03-18.49Z" style="fill:#ffb899;"/><path d="M73.97,37c10.21-.01,18.5,8.3,18.51,18.51.01,10.21-8.3,18.44-18.51,18.46-.06-42.81.04-8.22.03-18.43-.01-10.21.03,18.43-.03-18.54Z" style="fill:#fff9e6;"/><path d="M.03,73.9v.08h36.97v-37.05c-.04,20.43-16.58,36.97-36.97,36.97h0Z" style="fill:#ffda50; fill-rule:evenodd;"/><path d="M73.97,110.95v-36.97h-36.97c20.43.04,36.97,16.58,36.97,36.97Z" style="fill:#65a8bf; fill-rule:evenodd;"/></svg>