<?xml version="1.0" encoding="UTF-8"?><svg id="Layer_5" xmlns="http://www.w3.org/2000/svg" viewBox="0 0 111 111"><rect x="74" y="37" width="37" height="37" style="fill:#fff9e6;"/><rect x="37" y="74" width="37" height="37" style="fill:#65a8bf;"/><rect x="0" y="37" width="37" height="37" style="fill:#ffda50;"/><rect x="37" width="37" height="37" style="fill:#fff9e6;"/><rect x="0" y="74" width="37" height="37" style="fill:#1d7491;"/><rect x="74" y="74" width="37" height="37" style="fill:#aab9e3;"/><rect x="37" y="37" width="37" height="37" style="fill:#e9f2f5;"/><rect x="0" width="37" height="37" style="fill:#65a8bf;"/><rect x="74" width="37" height="37" style="fill:#e9f2f5;"/><path d="M37,74L0,37h37v37Z" style="fill:#aab9e3;"/><path d="M111,37L74,0h37v37Z" style="fill:#ffda50;"/><path d="M56,92.5l-19-18.5v37l19-18.5Z" style="fill:#e9f2f5;"/><path d="M56,92.5l18-18.5v37l-18-18.5Z" style="fill:#e9f2f5;"/><path d="M36.92,74v37H0c20.4-.04,36.92-16.59,36.92-37Z" style="fill:#ffda50; fill-rule:evenodd;"/><path d="M36.92,0v37H0C20.4,36.96,36.92,20.41,36.92,0Z" style="fill:#e9f2f5; fill-rule:evenodd;"/><path d="M37,0v37h36.92C53.52,36.96,37,20.41,37,0Z" style="fill:#1d7491; fill-rule:evenodd;"/><path d="M92.5,37h0c10.22,0,18.5,8.28,18.5,18.5h0c0,10.22-8.28,18.5-18.5,18.5h0c-10.22,0-18.5-8.28-18.5-18.5h0c0-10.22,8.28-18.5,18.5-18.5Z" style="fill:#aab9e3;"/><path d="M111,74c0,10.22-8.28,18.5-18.5,18.5s-18.5-8.28-18.5-18.5c42.84,0,8.28,0,18.5,0s-18.5,0,18.5,0Z" style="fill:#1d7491;"/><path d="M74,37c0,10.22-8.28,18.5-18.5,18.5s-18.5-8.28-18.5-18.5c42.84,0,8.28,0,18.5,0s-18.5,0,18.5,0Z" style="fill:#ffda50;"/><path d="M74,111c0-10.22,8.28-18.5,18.5-18.5s18.5,8.28,18.5,18.5c-42.84,0-8.28,0-18.5,0s18.5,0-18.5,0Z" style="fill:#ffda50;"/><path d="M37,74c0-10.22,8.28-18.5,18.5-18.5s18.5,8.28,18.5,18.5c-42.84,0-8.28,0-18.5,0s18.5,0-18.5,0Z" style="fill:#fff9e6;"/></svg>