<?xml version="1.0" encoding="UTF-8"?><svg id="Layer_15" xmlns="http://www.w3.org/2000/svg" viewBox="0 0 111 111"><rect x="74" y="37" width="37" height="37" style="fill:#ffea9b;"/><rect x="37" y="74" width="37" height="37" style="fill:#65a8bf;"/><rect y="37" width="37" height="37" style="fill:#65a8bf;"/><rect x="37" width="37" height="37" style="fill:#fff9e6;"/><rect y="74" width="37" height="37" style="fill:#1d7491;"/><rect x="74" y="74" width="37" height="37" style="fill:#96dbaa;"/><rect x="37" y="37" width="37" height="37" style="fill:#e9f2f5;"/><rect width="37" height="37" style="fill:#1d7491;"/><rect x="74" width="37" height="37" style="fill:#a7cddb;"/><path d="M37,74L0,37h37v37Z" style="fill:#ffda50;"/><path d="M111,37L74,0h37v37Z" style="fill:#ffda50;"/><path d="M56,92.5l-19-18.5v37l19-18.5Z" style="fill:#a7cddb;"/><path d="M56,18.5L37,0v37l19-18.5Z" style="fill:#96dbaa;"/><path d="M93,55.5l-19-18.5v37l19-18.5Z" style="fill:#a7cddb;"/><path d="M56,92.5l18-18.5v37l-18-18.5Z" style="fill:#a7cddb;"/><path d="M56,18.5L74,0v37l-18-18.5Z" style="fill:#96dbaa;"/><path d="M93,55.5l18-18.5v37l-18-18.5Z" style="fill:#a7cddb;"/><path d="M111,74c0,10.22-8.28,18.5-18.5,18.5s-18.5-8.28-18.5-18.5c42.84,0,8.28,0,18.5,0s-18.5,0,18.5,0Z" style="fill:#1d7491;"/><path d="M37,0c0,10.22-8.28,18.5-18.5,18.5S0,10.22,0,0c42.84,0,8.28,0,18.5,0S0,0,37,0Z" style="fill:#ffda50;"/><path d="M74,111c0-10.22,8.28-18.5,18.5-18.5s18.5,8.28,18.5,18.5c-42.84,0-8.28,0-18.5,0s18.5,0-18.5,0Z" style="fill:#ffda50;"/><path d="M0,37c0-10.22,8.28-18.5,18.5-18.5s18.5,8.28,18.5,18.5c-42.84,0-8.28,0-18.5,0s18.5,0-18.5,0Z" style="fill:#ffea9b;"/><path d="M37,74v-37h.5c10.22,0,18.5,8.28,18.5,18.5s-8.28,18.5-18.5,18.5h-.5Z" style="fill:#ffea9b;"/><path d="M0,111v-37h.5c10.22,0,18.5,8.28,18.5,18.5S10.72,111,.5,111h-.5Z" style="fill:#ffea9b;"/><path d="M74,74v-37c-9.94,0-18,8.06-18,18v1c0,9.94,8.06,18,18,18Z" style="fill:#1d7491;"/><path d="M37,111v-37c-9.94,0-18,8.06-18,18v1c0,9.94,8.06,18,18,18Z" style="fill:#96dbaa;"/></svg>