<?xml version="1.0" encoding="UTF-8"?><svg id="Layer_7" xmlns="http://www.w3.org/2000/svg" viewBox="0 0 111 111"><rect x="0" y="0" width="111" height="111" style="fill:#fff;"/><rect x="74" y="37" width="37" height="37" style="fill:#ffda50;"/><path d="M74,74v-37h37c0,20.43-16.57,37-37,37Z" style="fill:#a7cddb;"/><path d="M111,0v37h-37C74,16.57,90.57,0,111,0Z" style="fill:#e9f2f5;"/><rect x="0" y="0" width="37" height="37" style="fill:#a7cddb;"/><rect x="37" y="0" width="37" height="37" style="fill:#1d7491;"/><rect x="0" y="37" width="37" height="37" style="fill:#fff;"/><rect x="0" y="74" width="37" height="37" style="fill:#ffda50;"/><rect x="37" y="37" width="37" height="37" style="fill:#a7cddb;"/><rect x="74" y="74" width="37" height="37" style="fill:#1d7491;"/><path d="M37,0v37H0C0,16.57,16.57,0,37,0Z" style="fill:#ffda50;"/><path d="M74,37h-37V0c20.43,0,37,16.57,37,37Z" style="fill:#e9f2f5;"/><path d="M0,37h37v37C16.57,74,0,57.43,0,37Z" style="fill:#e9f2f5;"/><path d="M0,111v-37h37C37,94.43,20.43,111,0,111Z" style="fill:#1d7491;"/><path d="M37,37h37v37c-20.43,0-37-16.57-37-37Z" style="fill:#ffea9b;"/><path d="M74,111h-37v-37c20.43,0,37,16.57,37,37Z" style="fill:#ffea9b;"/><path d="M74,111v-37h37c0,20.43-16.57,37-37,37Z" style="fill:#e9f2f5;"/></svg>