<?xml version="1.0" encoding="UTF-8"?><svg id="Layer_12" xmlns="http://www.w3.org/2000/svg" viewBox="0 0 111 111"><rect x="74" y="37" width="37" height="37" style="fill:#a7cddb;"/><rect x="37" y="74" width="37" height="37" style="fill:#fff;"/><rect y="37" width="37" height="37" style="fill:#fff;"/><rect x="37" width="37" height="37" style="fill:#ffea9b;"/><path d="M55.5,0h0c10.22,0,18.5,8.28,18.5,18.5h0c0,10.22-8.28,18.5-18.5,18.5h0c-10.22,0-18.5-8.28-18.5-18.5h0C37,8.28,45.28,0,55.5,0Z" style="fill:#a7cddb;"/><path d="M92.5,37h0c10.22,0,18.5,8.28,18.5,18.5h0c0,10.22-8.28,18.5-18.5,18.5h0c-10.22,0-18.5-8.28-18.5-18.5h0c0-10.22,8.28-18.5,18.5-18.5Z" style="fill:#ffda50;"/><rect y="74" width="37" height="37" style="fill:#ffea9b;"/><rect x="74" y="74" width="37" height="37" style="fill:#ffea9b;"/><rect x="37" y="37" width="37" height="37" style="fill:#a7cddb;"/><rect width="37" height="37" style="fill:#a7cddb;"/><rect x="74" width="37" height="37" style="fill:#fff9e6;"/><path d="M37,0L0,37c20.43,0,37-16.57,37-37Z" style="fill:#fff9e6;"/><path d="M74,37l-37,37c20.43,0,37-16.57,37-37Z" style="fill:#ffea9b;"/><path d="M0,37l37,37C16.57,74,0,57.43,0,37Z" style="fill:#a7cddb;"/><path d="M74,0l37,37c-20.43,0-37-16.57-37-37Z" style="fill:#e9f2f5;"/><path d="M37,74l37,37c-20.43,0-37-16.57-37-37Z" style="fill:#ffea9b;"/><path d="M111,74l-37,37c20.43,0,37-16.57,37-37Z" style="fill:#e9f2f5;"/><path d="M37,0L0,37C0,16.57,16.57,0,37,0Z" style="fill:#ffda50;"/><path d="M74,37l-37,37c0-20.43,16.57-37,37-37Z" style="fill:#65a8bf;"/><path d="M0,37l37,37c0-20.43-16.57-37-37-37Z" style="fill:#a7cddb;"/><path d="M74,0l37,37C111,16.57,94.43,0,74,0Z" style="fill:#a7cddb;"/><path d="M37,74l37,37c0-20.43-16.57-37-37-37Z" style="fill:#a7cddb;"/><path d="M111,74l-37,37c0-20.43,16.57-37,37-37Z" style="fill:#a7cddb;"/><path d="M18.5,74h0c10.22,0,18.5,8.28,18.5,18.5h0c0,10.22-8.28,18.5-18.5,18.5h0c-10.22,0-18.5-8.28-18.5-18.5h0c0-10.22,8.28-18.5,18.5-18.5Z" style="fill:#65a8bf;"/></svg>