<?xml version="1.0" encoding="UTF-8"?><svg id="Layer_14" xmlns="http://www.w3.org/2000/svg" viewBox="0 0 111 111"><rect x="0" y="0" width="111" height="111" style="fill:#fff;"/><rect x="74" y="37" width="37" height="37" style="fill:#ffda50;"/><rect x="0" y="0" width="37" height="37" style="fill:#a7cddb;"/><rect x="37" y="0" width="37" height="37" style="fill:#1d7491;"/><rect x="0" y="74" width="37" height="37" style="fill:#ffda50;"/><rect x="37" y="37" width="37" height="37" style="fill:#a7cddb;"/><rect x="74" y="74" width="37" height="37" style="fill:#1d7491;"/><path d="M37,0v37H0C0,16.57,16.57,0,37,0Z" style="fill:#ffda50;"/><path d="M111,37h-37V0c20.43,0,37,16.57,37,37Z" style="fill:#e9f2f5;"/><path d="M0,111v-37h37C37,94.43,20.43,111,0,111Z" style="fill:#1d7491;"/><path d="M37,37h37v37c-20.43,0-37-16.57-37-37Z" style="fill:#ffea9b;"/><path d="M74,111v-37h37c0,20.43-16.57,37-37,37Z" style="fill:#e9f2f5;"/><path d="M0,74v-37h.5c10.22,0,18.5,8.28,18.5,18.5S10.72,74,.5,74H0Z" style="fill:#a7cddb;"/><path d="M37,74v-37c-9.94,0-18,8.06-18,18v1c0,9.94,8.06,18,18,18Z" style="fill:#1d7491;"/><path d="M74,0c0,10.22-8.28,18.5-18.5,18.5S37,10.22,37,0C79.84,0,45.28,0,55.5,0S37,0,74,0Z" style="fill:#a7cddb;"/><path d="M37,37c0-10.22,8.28-18.5,18.5-18.5s18.5,8.28,18.5,18.5c-42.84,0-8.28,0-18.5,0s18.5,0-18.5,0Z" style="fill:#ffda50;"/><path d="M37,111v-37h.5c10.22,0,18.5,8.28,18.5,18.5s-8.28,18.5-18.5,18.5h-.5Z" style="fill:#ffea9b;"/><path d="M74,111v-37c-9.94,0-18,8.06-18,18v1c0,9.94,8.06,18,18,18Z" style="fill:#1d7491;"/><path d="M111,37c0,10.22-8.28,18.5-18.5,18.5s-18.5-8.28-18.5-18.5c42.84,0,8.28,0,18.5,0s-18.5,0,18.5,0Z" style="fill:#1d7491;"/><path d="M74,74c0-10.22,8.28-18.5,18.5-18.5s18.5,8.28,18.5,18.5c-42.84,0-8.28,0-18.5,0s18.5,0-18.5,0Z" style="fill:#fff;"/></svg>