<?xml version="1.0" encoding="UTF-8"?><svg id="Layer_1" xmlns="http://www.w3.org/2000/svg" viewBox="0 0 111 111"><rect x="74" y="37" width="37" height="37" style="fill:#fff;"/><rect x="37" y="74" width="37" height="37" style="fill:#fff;"/><rect y="37" width="37" height="37" style="fill:#ffda50;"/><rect x="37" width="37" height="37" style="fill:#fff;"/><rect y="74" width="37" height="37" style="fill:#1d7491;"/><rect x="74" y="74" width="37" height="37" style="fill:#e9f2f5;"/><rect x="37" y="37" width="37" height="37" style="fill:#e9f2f5;"/><rect width="37" height="37" style="fill:#e9f2f5;"/><rect x="74" width="37" height="37" style="fill:#e9f2f5;"/><path d="M74,37l-37,37c20.43,0,37-16.57,37-37Z" style="fill:#ffcb05;"/><path d="M74,37l-37,37c0-20.43,16.57-37,37-37Z" style="fill:#1d7491;"/><path d="M37,111L0,74h37v37Z" style="fill:#e9f2f5;"/><path d="M111,37L74,0h37v37Z" style="fill:#aab9e3;"/><path d="M56,92.5l-19-18.5v37l19-18.5Z" style="fill:#65a8bf;"/><path d="M56,92.5l18-18.5v37l-18-18.5Z" style="fill:#65a8bf;"/><path d="M0,37V0h.5c10.22,0,18.5,8.28,18.5,18.5S10.72,37,.5,37h-.5Z" style="fill:#aab9e3;"/><path d="M37,37V0c-9.94,0-18,8.06-18,18v1c0,9.94,8.06,18,18,18Z" style="fill:#65a8bf;"/><path d="M0,37v37h36.92c-20.4-.04-36.92-16.59-36.92-37Z" style="fill:#fff; fill-rule:evenodd;"/><path d="M92.5,37h0c10.22,0,18.5,8.28,18.5,18.5h0c0,10.22-8.28,18.5-18.5,18.5h0c-10.22,0-18.5-8.28-18.5-18.5h0c0-10.22,8.28-18.5,18.5-18.5Z" style="fill:#65a8bf;"/><path d="M111,74c0,10.22-8.28,18.5-18.5,18.5s-18.5-8.28-18.5-18.5c42.84,0,8.28,0,18.5,0s-18.5,0,18.5,0Z" style="fill:#ffda50;"/><path d="M74,111c0-10.22,8.28-18.5,18.5-18.5s18.5,8.28,18.5,18.5c-42.84,0-8.28,0-18.5,0s18.5,0-18.5,0Z" style="fill:#aab9e3;"/><path d="M74,0c0,10.22-8.28,18.5-18.5,18.5S37,10.22,37,0c42.84,0,8.28,0,18.5,0s-18.5,0,18.5,0Z" style="fill:#ffda50;"/><path d="M37,37c0-10.22,8.28-18.5,18.5-18.5s18.5,8.28,18.5,18.5c-42.84,0-8.28,0-18.5,0s18.5,0-18.5,0Z" style="fill:#aab9e3;"/></svg>