<?xml version="1.0" encoding="UTF-8"?><svg id="Layer_13" xmlns="http://www.w3.org/2000/svg" viewBox="0 0 111 111"><rect x="74" y="37" width="37" height="37" style="fill:#fff;"/><rect x="37" y="74" width="37" height="37" style="fill:#fff;"/><rect y="37" width="37" height="37" style="fill:#ffea9b;"/><rect x="37" width="37" height="37" style="fill:#fff;"/><rect y="74" width="37" height="37" style="fill:#65a8bf;"/><rect x="74" y="74" width="37" height="37" style="fill:#ffea9b;"/><rect x="37" y="37" width="37" height="37" style="fill:#a7cddb;"/><rect width="37" height="37" style="fill:#1d7491;"/><rect x="74" width="37" height="37" style="fill:#ffea9b;"/><path d="M37,0L0,37c20.43,0,37-16.57,37-37Z" style="fill:#ffea9b;"/><path d="M111,74l-37,37c20.43,0,37-16.57,37-37Z" style="fill:#1d7491;"/><path d="M37,74L0,111c20.43,0,37-16.57,37-37Z" style="fill:#ff8a58;"/><path d="M37,74l37,37c-20.43,0-37-16.57-37-37Z" style="fill:#ff8a58;"/><path d="M37,0l37,37c-20.43,0-37-16.57-37-37Z" style="fill:#ff8a58;"/><path d="M74,37l-37,37c20.43,0,37-16.57,37-37Z" style="fill:#e9f2f5;"/><path d="M111,0l-37,37c20.43,0,37-16.57,37-37Z" style="fill:#a7cddb;"/><path d="M74,37l37,37c-20.43,0-37-16.57-37-37Z" style="fill:#e9f2f5;"/><path d="M0,37l37,37C16.57,74,0,57.43,0,37Z" style="fill:#e9f2f5;"/><path d="M37,0L0,37C0,16.57,16.57,0,37,0Z" style="fill:#e9f2f5;"/><path d="M111,74l-37,37c0-20.43,16.57-37,37-37Z" style="fill:#65a8bf;"/><path d="M37,74L0,111c0-20.43,16.57-37,37-37Z" style="fill:#ffea9b;"/><path d="M37,74l37,37c0-20.43-16.57-37-37-37Z" style="fill:#65a8bf;"/><path d="M37,0l37,37C74,16.57,57.43,0,37,0Z" style="fill:#65a8bf;"/><path d="M74,37l-37,37c0-20.43,16.57-37,37-37Z" style="fill:#ffea9b;"/><path d="M111,0l-37,37C74,16.57,90.57,0,111,0Z" style="fill:#1d7491;"/><path d="M74,37l37,37c0-20.43-16.57-37-37-37Z" style="fill:#a7cddb;"/><path d="M0,37l37,37c0-20.43-16.57-37-37-37Z" style="fill:#65a8bf;"/></svg>