<?xml version="1.0" encoding="UTF-8"?><svg id="Layer_10" xmlns="http://www.w3.org/2000/svg" viewBox="0 0 111 111"><rect x="74" y="37" width="37" height="37" style="fill:#a7cddb;"/><rect x="37" y="74" width="37" height="37" style="fill:#1d7491;"/><rect y="37" width="37" height="37" style="fill:#65a8bf;"/><rect x="37" width="37" height="37" style="fill:#e9f2f5;"/><rect y="74" width="37" height="37" style="fill:#e9f2f5;"/><rect x="74" y="74" width="37" height="37" style="fill:#ffea9b;"/><rect x="37" y="37" width="37" height="37" style="fill:#e9f2f5;"/><rect width="37" height="37" style="fill:#a7cddb;"/><rect x="74" width="37" height="37" style="fill:#a7cddb;"/><path d="M74,0v37h37C90.56,36.96,74,20.41,74,0Z" style="fill:#1d7491; fill-rule:evenodd;"/><path d="M37,0H0v37C.04,16.56,16.59,0,37,0Z" style="fill:#1d7491; fill-rule:evenodd;"/><path d="M74,74v37h37c-20.44-.04-37-16.59-37-37Z" style="fill:#a7cddb; fill-rule:evenodd;"/><path d="M0,73.92h37v-37c-.04,20.44-16.59,37-37,37Z" style="fill:#ffea9b; fill-rule:evenodd;"/><path d="M74,74v-37h-37c20.44.04,37,16.59,37,37Z" style="fill:#65a8bf; fill-rule:evenodd;"/><path d="M92.5,37h0c10.22,0,18.5,8.28,18.5,18.5h0c0,10.22-8.28,18.5-18.5,18.5h0c-10.22,0-18.5-8.28-18.5-18.5h0c0-10.22,8.28-18.5,18.5-18.5Z" style="fill:#e9f2f5;"/><path d="M55.5,74h0c10.22,0,18.5,8.28,18.5,18.5h0c0,10.22-8.28,18.5-18.5,18.5h0c-10.22,0-18.5-8.28-18.5-18.5h0c0-10.22,8.28-18.5,18.5-18.5Z" style="fill:#ffea9b;"/><path d="M55.5,0h0c10.22,0,18.5,8.28,18.5,18.5h0c0,10.22-8.28,18.5-18.5,18.5h0c-10.22,0-18.5-8.28-18.5-18.5h0C37,8.28,45.28,0,55.5,0Z" style="fill:#ffea9b;"/><path d="M18.5,74h0c10.22,0,18.5,8.28,18.5,18.5h0c0,10.22-8.28,18.5-18.5,18.5h0c-10.22,0-18.5-8.28-18.5-18.5h0c0-10.22,8.28-18.5,18.5-18.5Z" style="fill:#a7cddb;"/></svg>