<?xml version="1.0" encoding="UTF-8"?><svg id="Layer_6" xmlns="http://www.w3.org/2000/svg" viewBox="0 0 111 111"><rect x="74" y="37" width="37" height="37" style="fill:#65a8bf;"/><rect x="37" y="74" width="37" height="37" style="fill:#e9f2f5;"/><rect x="0" y="37" width="37" height="37" style="fill:#e9f2f5;"/><rect x="37" y="0" width="37" height="37" style="fill:#ffea9b;"/><rect x="0" y="74" width="37" height="37" style="fill:#fff9e6;"/><rect x="74" y="74" width="37" height="37" style="fill:#ffb899;"/><rect x="37" y="37" width="37" height="37" style="fill:#1d7491;"/><rect x="0" y="0" width="37" height="37" style="fill:#e9f2f5;"/><rect x="74" y="0" width="37" height="37" style="fill:#fff9e6;"/><path d="M111,37L74,0h37v37Z" style="fill:#ffb899;"/><path d="M37,111l37-37h-37v37Z" style="fill:#65a8bf;"/><path d="M56,55.5l-19-18.5v37l19-18.5Z" style="fill:#ffb899;"/><path d="M56,55.5l18-18.5v37l-18-18.5Z" style="fill:#ffb899;"/><path d="M36.92,74v37H0c20.4-.04,36.92-16.59,36.92-37Z" style="fill:#1d7491; fill-rule:evenodd;"/><path d="M0,0v37h36.92C16.52,36.96,0,20.41,0,0Z" style="fill:#1d7491; fill-rule:evenodd;"/><path d="M37,37V0h36.92c-20.4.04-36.92,16.59-36.92,37Z" style="fill:#1d7491; fill-rule:evenodd;"/><path d="M37,37c0,10.22-8.28,18.5-18.5,18.5S0,47.22,0,37c42.84,0,8.28,0,18.5,0S0,37,37,37Z" style="fill:#ffb899;"/><path d="M0,74C0,63.78,8.28,55.5,18.5,55.5s18.5,8.28,18.5,18.5c-42.84,0-8.28,0-18.5,0S37,74,0,74Z" style="fill:#1d7491;"/><path d="M111,37l-37,37c20.43,0,37-16.57,37-37Z" style="fill:#ffea9b;"/><path d="M111,37l-37,37c0-20.43,16.57-37,37-37Z" style="fill:#fff9e6;"/><path d="M92.5,74h0c10.22,0,18.5,8.28,18.5,18.5h0c0,10.22-8.28,18.5-18.5,18.5h0c-10.22,0-18.5-8.28-18.5-18.5h0c0-10.22,8.28-18.5,18.5-18.5Z" style="fill:#fff9e6;"/></svg>