<?xml version="1.0" encoding="UTF-8"?><svg id="Layer_9" xmlns="http://www.w3.org/2000/svg" viewBox="0 0 111 111"><rect x="74" y="37" width="37" height="37" style="fill:#65a8bf;"/><rect x="37" y="74" width="37" height="37" style="fill:#fff;"/><rect y="37" width="37" height="37" style="fill:#fff;"/><rect x="37" width="37" height="37" style="fill:#e9f2f5;"/><rect y="74" width="37" height="37" style="fill:#ffda50;"/><rect x="74" y="74" width="37" height="37" style="fill:#ffea9b;"/><rect x="37" y="37" width="37" height="37" style="fill:#a7cddb;"/><rect width="37" height="37" style="fill:#65a8bf;"/><rect x="74" width="37" height="37" style="fill:#fff9e6;"/><path d="M37,111v-37h.5c10.22,0,18.5,8.28,18.5,18.5s-8.28,18.5-18.5,18.5h-.5Z" style="fill:#a7cddb;"/><path d="M0,74v-37h.5c10.22,0,18.5,8.28,18.5,18.5S10.72,74,.5,74h-.5Z" style="fill:#1d7491;"/><path d="M37,37V0h.5c10.22,0,18.5,8.28,18.5,18.5s-8.28,18.5-18.5,18.5h-.5Z" style="fill:#a7cddb;"/><path d="M74,111v-37c-9.94,0-18,8.06-18,18v1c0,9.94,8.06,18,18,18Z" style="fill:#1d7491;"/><path d="M37,74v-37c-9.94,0-18,8.06-18,18v1c0,9.94,8.06,18,18,18Z" style="fill:#ffea9b;"/><path d="M74,37V0c-9.94,0-18,8.06-18,18v1c0,9.94,8.06,18,18,18Z" style="fill:#ffda50;"/><path d="M37,74c0,10.22-8.28,18.5-18.5,18.5S0,84.22,0,74c42.84,0,8.28,0,18.5,0s-18.5,0,18.5,0Z" style="fill:#65a8bf;"/><path d="M0,111c0-10.22,8.28-18.5,18.5-18.5s18.5,8.28,18.5,18.5c-42.84,0-8.28,0-18.5,0s18.5,0-18.5,0Z" style="fill:#e9f2f5;"/><path d="M111,0c0,10.22-8.28,18.5-18.5,18.5S74,10.22,74,0c42.84,0,8.28,0,18.5,0s-18.5,0,18.5,0Z" style="fill:#a7cddb;"/><path d="M74,37c0-10.22,8.28-18.5,18.5-18.5s18.5,8.28,18.5,18.5c-42.84,0-8.28,0-18.5,0s18.5,0-18.5,0Z" style="fill:#ffda50;"/><path d="M37,0L0,37c20.43,0,37-16.57,37-37Z" style="fill:#ffea9b;"/><path d="M111,74l-37,37c20.43,0,37-16.57,37-37Z" style="fill:#ffda50;"/><path d="M37,37l37,37c-20.43,0-37-16.57-37-37Z" style="fill:#e9f2f5;"/><path d="M111,37l-37,37c20.43,0,37-16.57,37-37Z" style="fill:#e9f2f5;"/><path d="M37,0L0,37C0,16.57,16.57,0,37,0Z" style="fill:#e9f2f5;"/><path d="M111,74l-37,37c0-20.43,16.57-37,37-37Z" style="fill:#65a8bf;"/><path d="M37,37l37,37c0-20.43-16.57-37-37-37Z" style="fill:#1d7491;"/><path d="M111,37l-37,37c0-20.43,16.57-37,37-37Z" style="fill:#1d7491;"/></svg>