<?xml version="1.0" encoding="UTF-8"?>
<svg xmlns="http://www.w3.org/2000/svg" version="1.1" viewBox="0 0 238 36">
  <defs>
    <style>
      .cls-1, .cls-2 {
        stroke-width: 0px;
      }
      .cls-1 {
        fill: #ffcb05;
      }
      .cls-2 {
        fill: #00274c;
      }
    </style>
  </defs>
  <g id="logo" focusable="false">
    <polyline id="logo-block-m" class="cls-1" points="25.1 29.7 14.8 15.6 14.8 25.8 18.9 25.8 18.9 35.9 0 35.9 0 25.8 3.8 25.8 3.8 10.1 0 10.1 0 0 14.9 0 25.1 14.2 35.3 0 50.2 0 50.2 10.1 46.4 10.1 46.4 25.8 50.2 25.8 50.2 35.9 31.3 35.9 31.3 25.8 35.4 25.8 35.4 15.6 25.1 29.7"/>
    <polygon id="logo-line" class="cls-2" points="60 35.9 61.3 35.9 61.3 0 60 0 60 35.9"/>
    <g id="logo-library">
      <polyline class="cls-2" points="70.2 36 70.2 0 74.8 0 74.8 32 88 32 88 36 70.2 36"/>
      <polygon class="cls-2" points="93.4 35.9 97.9 35.9 97.9 0 93.4 0 93.4 35.9"/>
      <path class="cls-2" d="M109,32h6.5c4.9,0,6.6-3.5,6.6-6.1,0-5.7-3.5-6.7-8.2-6.7h-4.9v12.8ZM109,15.2h6.7c3.6,0,5.3-2.2,5.3-5.7s-1.7-5.4-5.5-5.4h-6.5v11.1ZM104.4,36V0h11.7c5,0,6.7,1.7,8,3.7,1.2,1.9,1.4,4.1,1.4,4.8,0,4.5-1.5,7.5-6.2,8.5v.2c5.1.6,7.4,3.7,7.4,8.6,0,9.2-6.7,10.1-10.8,10.1h-11.5Z"/>
      <path class="cls-2" d="M136.2,15.5h6.9c3.3,0,4.9-2.8,4.9-6s-1.3-5.5-4.8-5.5h-6.9v11.4ZM136.2,19.5v16.5h-4.6V0h12.4c6.4,0,8.6,4.5,8.6,8.9s-2.3,7.5-6.6,8.2h0c4.1.7,5.6,2.1,5.9,9.3,0,1.5.5,7.2,1.2,9.4h-4.8c-1.3-2.5-1-7.2-1.4-11.9-.3-4.4-3.9-4.6-5.4-4.6h-5.4Z"/>
      <path class="cls-2" d="M171.5,4.3h0l-5.6,19.1h11.5l-5.8-19.1ZM168.7,0h5.8l11.7,35.9h-5.1l-2.6-8.5h-13.9l-2.7,8.5h-4.6L168.7,0Z"/>
      <path class="cls-2" d="M195.2,15.5h6.9c3.3,0,4.9-2.8,4.9-6s-1.3-5.5-4.8-5.5h-6.9v11.4ZM195.2,19.5v16.5h-4.6V0h12.4c6.4,0,8.6,4.5,8.6,8.9s-2.3,7.5-6.6,8.2h0c4.1.7,5.6,2.1,5.9,9.3,0,1.5.5,7.2,1.2,9.4h-4.8c-1.3-2.5-1-7.2-1.4-11.9-.3-4.4-3.9-4.6-5.4-4.6h-5.4Z"/>
      <polyline class="cls-2" points="233.4 0 238 0 228.2 22.3 228.2 36 223.6 36 223.6 22.3 214 0 219.1 0 226.1 17.4 233.4 0"/>
    </g>
  </g>
</svg>